<svg width="512" height="512" xmlns="http://www.w3.org/2000/svg">
 <g>
  <title>background</title>
  <rect fill="none" id="canvas_background" height="653.453745" width="653.453745" y="-1" x="-1"/>
 </g>

 <g>
  <title>Layer 1</title>
  <path fill="#41464c" id="svg_2" d="m317.44364,239.28173c1.26143,-4.415 1.97098,-9.14536 1.97098,-14.0334c0,-28.22447 -22.8634,-51.00903 -51.00903,-51.00903c-23.02108,0 -42.49438,15.29482 -48.88037,36.18724c-3.31125,-0.55188 -6.78018,-0.86723 -10.24911,-0.86723c-35.08349,0 -63.54448,28.46099 -63.54448,63.54448c0,35.08349 28.46099,63.54448 63.54448,63.54448l106.43306,0c26.88421,0 48.72269,-21.83849 48.72269,-48.72269c0,-26.33233 -20.89241,-47.77662 -46.98822,-48.64385z" class="st0" stroke="null"/>
  <path fill="#3b4652" id="svg_3" d="m155.03467,127.72411l46.43635,0l0,39.97153c0,3.07473 2.44402,5.51875 5.51875,5.51875s5.51875,-2.44402 5.51875,-5.51875l0,-45.49028c0,-3.07473 -2.44401,-5.51875 -5.51875,-5.51875l-52.58581,0c-2.75938,-8.19929 -10.56447,-14.19108 -19.70983,-14.19108c-11.4317,0 -20.81358,9.30304 -20.81358,20.81358s9.30304,20.81358 20.81358,20.81358c9.93375,0 18.29072,-7.09554 20.34054,-16.39858zm-20.34054,5.36107c-5.36107,0 -9.77607,-4.415 -9.77607,-9.77607s4.415,-9.77607 9.77607,-9.77607s9.77607,4.415 9.77607,9.77607s-4.415,9.77607 -9.77607,9.77607z" class="st1" stroke="null"/>
  <path fill="#3b4652" id="svg_4" d="m392.97169,144.12269c11.4317,0 20.81358,-9.30304 20.81358,-20.81358s-9.38188,-20.81358 -20.81358,-20.81358c-9.14536,0 -16.95045,5.99179 -19.70983,14.19108l-52.58581,0c-3.07474,0 -5.51875,2.44402 -5.51875,5.51875l0,45.49028c0,3.07473 2.44401,5.51875 5.51875,5.51875s5.51875,-2.44402 5.51875,-5.51875l0,-39.97153l46.43635,0c2.04982,9.30304 10.32795,16.39858 20.34054,16.39858zm0,-30.58965c5.36107,0 9.77607,4.415 9.77607,9.77607s-4.415,9.77607 -9.77607,9.77607s-9.77607,-4.415 -9.77607,-9.77607s4.33616,-9.77607 9.77607,-9.77607z" class="st1" stroke="null"/>
  <path fill="#3b4652" id="svg_5" d="m255.87014,103.52044l0,49.82644c0,3.07474 2.44402,5.51876 5.51875,5.51876s5.51875,-2.44402 5.51875,-5.51876l0,-49.82644c8.83,-2.44401 15.29483,-10.48562 15.29483,-20.02518c0,-11.4317 -9.30304,-20.81357 -20.81358,-20.81357s-20.81358,9.30303 -20.81358,20.81357c0,9.53956 6.54367,17.58117 15.29483,20.02518zm5.51875,-29.80125c5.36107,0 9.77607,4.415 9.77607,9.77607s-4.415,9.77608 -9.77607,9.77608s-9.77607,-4.41501 -9.77607,-9.77608s4.415,-9.77607 9.77607,-9.77607z" class="st1" stroke="null"/>
  <path fill="#3b4652" id="svg_6" d="m122.3952,249.76735l-25.78045,0l0,-32.24527c9.30304,-2.04982 16.39857,-10.40679 16.39857,-20.34054c0,-11.4317 -9.30304,-20.81358 -20.81357,-20.81358s-20.81358,9.30304 -20.81358,20.73474c0,9.14536 5.99179,16.95045 14.19108,19.70982l0,38.39475c0,3.07473 2.44401,5.51875 5.51875,5.51875l31.2992,0c3.07473,0 5.51875,-2.44402 5.51875,-5.51875s-2.52286,-5.43992 -5.51875,-5.43992zm-39.97153,-52.66465c0,-5.36108 4.415,-9.77608 9.77608,-9.77608s9.77607,4.415 9.77607,9.77608s-4.415,9.77607 -9.77607,9.77607s-9.77608,-4.33616 -9.77608,-9.77607z" class="st1" stroke="null"/>
  <path fill="#3b4652" id="svg_7" d="m122.3952,298.88424l-21.52313,0c-2.44402,-8.83 -10.48563,-15.29483 -20.02518,-15.29483c-11.4317,0 -20.81358,9.30304 -20.81358,20.81358s9.30304,20.81358 20.81358,20.81358c9.53955,0 17.58116,-6.46483 20.02518,-15.29483l21.44429,0c3.07473,0 5.51875,-2.44402 5.51875,-5.51875s-2.44402,-5.51875 -5.43991,-5.51875zm-41.54831,15.21599c-5.36108,0 -9.77608,-4.41501 -9.77608,-9.77608s4.415,-9.77607 9.77608,-9.77607s9.77607,4.415 9.77607,9.77607s-4.415,9.77608 -9.77607,9.77608z" class="st1" stroke="null"/>
  <path fill="#3b4652" id="svg_8" d="m427.58214,331.91791l0,-38.39474c0,-3.07474 -2.44401,-5.51875 -5.51875,-5.51875l-31.2992,0c-3.07473,0 -5.51875,2.44401 -5.51875,5.51875s2.44402,5.51875 5.51875,5.51875l25.78045,0l0,32.24527c-9.30304,2.04983 -16.39857,10.40679 -16.39857,20.34054c0,11.4317 9.30303,20.81358 20.81357,20.81358s20.81358,-9.30304 20.81358,-20.81358c0,-9.14536 -5.99179,-16.95045 -14.19108,-19.70982zm-6.6225,29.4859c-5.36107,0 -9.77607,-4.415 -9.77607,-9.77608s4.415,-9.77607 9.77607,-9.77607s9.77608,4.415 9.77608,9.77607s-4.415,9.77608 -9.77608,9.77608z" class="st1" stroke="null"/>
  <path fill="#3b4652" id="svg_9" d="m432.3125,223.5927c-9.53955,0 -17.58116,6.46483 -20.02518,15.29483l-21.44429,0c-3.07473,0 -5.51875,2.44402 -5.51875,5.51875s2.44402,5.51875 5.51875,5.51875l21.44429,0c2.44402,8.83 10.48563,15.29483 20.02518,15.29483c11.4317,0 20.81358,-9.30304 20.81358,-20.81358s-9.38188,-20.81358 -20.81358,-20.81358zm0,30.58965c-5.36107,0 -9.77607,-4.415 -9.77607,-9.77607s4.415,-9.77607 9.77607,-9.77607s9.77608,4.415 9.77608,9.77607s-4.41501,9.77607 -9.77608,9.77607z" class="st1" stroke="null"/>
  <path fill="#3b4652" id="svg_10" d="m308.45596,396.32962l0,-35.63537c0,-3.07473 -2.44402,-5.51875 -5.51875,-5.51875s-5.51876,2.44402 -5.51876,5.51875l0,35.63537c-8.83,2.44402 -15.29482,10.48563 -15.29482,20.02518c0,11.4317 9.30304,20.81358 20.81358,20.81358s20.81357,-9.30304 20.81357,-20.81358c-0.07884,-9.53955 -6.54366,-17.58116 -15.29482,-20.02518zm-5.51875,29.80126c-5.36108,0 -9.77608,-4.41501 -9.77608,-9.77608s4.415,-9.77607 9.77608,-9.77607s9.77607,4.415 9.77607,9.77607s-4.415,9.77608 -9.77607,9.77608z" class="st1" stroke="null"/>
  <path fill="#3b4652" id="svg_11" d="m234.11049,383.2423c-9.53955,0 -17.58116,6.46482 -20.02518,15.29482l-16.55625,0l0,-37.84287c0,-3.07473 -2.44402,-5.51875 -5.51876,-5.51875s-5.51875,2.44402 -5.51875,5.51875l0,43.36162c0,3.07473 2.44402,5.51875 5.51875,5.51875l22.07501,0c2.44402,8.83 10.48563,15.29483 20.02518,15.29483c11.4317,0 20.81358,-9.30304 20.81358,-20.81358s-9.38188,-20.81357 -20.81358,-20.81357zm0,30.58965c-5.36107,0 -9.77607,-4.41501 -9.77607,-9.77608s4.415,-9.77607 9.77607,-9.77607s9.77608,4.415 9.77608,9.77607s-4.415,9.77608 -9.77608,9.77608z" class="st1" stroke="null"/>
 </g>
</svg>