<?xml version="1.0" standalone="no"?>
<!DOCTYPE svg PUBLIC "-//W3C//DTD SVG 20010904//EN"
 "http://www.w3.org/TR/2001/REC-SVG-20010904/DTD/svg10.dtd">
<svg version="1.0" xmlns="http://www.w3.org/2000/svg"
 width="512.000000pt" height="512.000000pt" viewBox="0 0 512.000000 512.000000"
 preserveAspectRatio="xMidYMid meet">

<g transform="translate(0.000000,512.000000) scale(0.100000,-0.100000)"
fill="#000000" stroke="none">
<path d="M4060 4166 c-142 -30 -260 -95 -379 -210 -87 -84 -172 -196 -341
-446 -205 -304 -282 -370 -444 -378 -45 -2 -189 3 -321 12 -189 13 -265 15
-351 6 -261 -24 -447 -106 -622 -274 -165 -158 -247 -320 -331 -656 -47 -185
-69 -238 -114 -276 -28 -24 -37 -26 -94 -21 -76 6 -128 34 -207 113 -190 190
-322 529 -380 973 -13 99 -19 118 -40 140 -36 36 -96 35 -132 0 -21 -22 -29
-47 -49 -163 -93 -528 -24 -971 198 -1272 142 -193 363 -348 612 -429 139 -46
145 -46 134 3 -5 20 -9 53 -9 74 0 36 0 36 -69 57 -110 33 -277 123 -371 198
-262 211 -390 522 -390 946 0 183 7 189 46 38 77 -303 199 -530 372 -692 155
-147 338 -179 466 -81 73 54 118 144 157 312 104 443 254 664 537 792 166 76
312 89 683 63 289 -20 368 -15 466 31 123 58 210 155 412 457 206 307 309 420
446 488 87 43 157 59 260 59 106 0 182 -17 281 -64 123 -58 158 -138 101 -225
-21 -32 -48 -50 -144 -98 -136 -68 -206 -126 -250 -210 -17 -32 -74 -159 -128
-283 -179 -415 -289 -621 -435 -814 -119 -159 -303 -319 -434 -377 -25 -11
-46 -23 -46 -28 0 -15 32 -116 40 -124 10 -12 149 60 239 123 41 29 115 94
165 144 213 212 367 470 596 996 164 379 157 370 340 451 136 59 209 106 277
176 112 115 130 227 50 311 -38 40 -85 54 -154 46 -47 -6 -59 -3 -145 39 -51
25 -120 53 -153 62 -83 22 -263 28 -345 11z"/>
<path d="M4143 3856 c-38 -35 -65 -67 -61 -71 3 -4 26 -3 50 2 36 8 47 6 70
-10 74 -54 159 53 93 118 -42 43 -75 34 -152 -39z"/>
<path d="M3157 2715 c-214 -81 -293 -370 -212 -772 41 -197 167 -487 302 -693
74 -112 213 -284 243 -300 11 -6 108 -10 225 -10 205 0 206 0 230 25 39 38 28
84 -30 124 -52 35 -131 117 -171 174 -65 98 -74 147 -74 427 0 136 -3 275 -6
309 l-7 61 -69 -68 -70 -67 4 -265 c4 -244 6 -270 27 -330 24 -68 64 -140 113
-203 l30 -37 -71 0 -70 0 -58 73 c-204 251 -358 564 -408 828 -64 337 5 589
161 589 85 0 166 -96 218 -258 l23 -74 43 49 c80 90 78 80 27 185 -51 105
-122 184 -196 220 -56 27 -151 33 -204 13z"/>
<path d="M1903 2688 c-24 -26 -58 -132 -73 -228 -46 -299 81 -572 320 -688
144 -70 233 -87 455 -87 120 0 212 5 250 13 101 22 94 13 75 87 -9 35 -19 67
-22 70 -3 3 -25 1 -50 -4 -94 -21 -257 -31 -362 -21 -348 33 -526 207 -526
510 0 74 19 192 32 205 13 13 138 -65 192 -119 111 -111 159 -243 154 -420
l-3 -110 30 -7 c17 -4 47 -9 67 -12 45 -7 48 -1 55 113 13 199 -64 406 -203
544 -74 73 -148 119 -244 152 -89 30 -121 30 -147 2z"/>
<path d="M2211 1649 c-122 -151 -438 -279 -692 -279 -65 0 -69 -1 -69 -22 0
-13 11 -47 25 -77 l25 -54 83 8 c298 25 541 129 711 303 73 74 104 120 84 126
-7 2 -33 8 -58 14 -25 6 -52 13 -61 17 -10 4 -26 -8 -48 -36z"/>
<path d="M1430 1651 c-77 -24 -148 -90 -168 -160 -20 -65 -14 -178 12 -252 40
-115 127 -228 209 -272 41 -22 49 -22 449 -25 l406 -3 36 31 c44 39 55 84 32
132 -14 29 -97 108 -230 220 l-29 25 -55 -34 c-31 -18 -62 -33 -69 -33 -23 0
-14 -14 30 -47 23 -18 70 -57 105 -88 l63 -55 -336 0 -336 0 -44 45 c-113 117
-149 317 -65 360 46 24 123 18 224 -16 l91 -32 83 28 c45 15 82 32 82 36 0 15
-224 118 -290 134 -69 16 -158 18 -200 6z"/>
</g>
</svg>
